<svg xmlns="http://www.w3.org/2000/svg" viewBox="0 19.780000686645508 28.219999313354492 16.010000228881836" data-asc="0.9052734375"><g stroke="#000000"><g fill="#ffffff" transform="translate(0, 0)"><path d="M13.06 25.44Q15.63 22.22 17.07 21.19Q19.02 19.78 21.19 19.78Q23.75 19.78 25.99 21.63Q28.22 23.49 28.22 27.61Q28.22 30.49 27.39 32.14Q26.56 33.79 24.80 34.79Q23.05 35.79 21.19 35.79Q19.02 35.79 17.07 34.40Q15.63 33.35 13.06 30.13Q9.74 34.30 6.01 34.30Q3.54 34.30 1.77 32.43Q0 30.57 0 27.78Q0 25.02 1.77 23.14Q3.54 21.26 6.01 21.26Q9.74 21.26 13.06 25.44M14.75 27.76Q16.87 31.05 18.63 32.28Q19.75 33.08 21.14 33.08Q23.00 33.08 24.26 31.71Q25.51 30.35 25.51 27.86Q25.51 25.27 24.23 23.90Q22.95 22.53 21.04 22.53Q19.85 22.53 18.80 23.22Q17.38 24.17 14.75 27.76M11.38 27.78Q9.42 25.34 8.25 24.65Q7.08 23.95 6.01 23.95Q4.59 23.95 3.65 24.95Q2.71 25.95 2.71 27.71Q2.71 29.44 3.69 30.48Q4.66 31.52 6.05 31.52Q8.52 31.52 11.38 27.78Z"/></g></g></svg>